# xmcd
#
# Track frame offsets:
#	150
#	26635
#	58060
#	76902
#	100752
#	121310
#	137315
#	172585
#	192937
#	223390
#
# Disc length: 3242 seconds
#
# Revision: 0
# Processed by: cddbd v1.4PL0 Copyright (c) Steve Scherf et al.
# Submitted via: audiograbber 1.80.04
#
DISCID=7f0ca80a
DTITLE=Bonnie Tyler - The very best of Bonnie Tyler
DYEAR=1900
DGENRE=
TTITLE0=Holding out for a hero
TTITLE1=Total eclipse of the heart
TTITLE2=Have you ever seen the rain
TTITLE3=If you were a woman (and I was a man)
TTITLE4=Lovers again
TTITLE5=It's a heartache
TTITLE6=Loving you is a dirty job, but someone gotta do it
TTITLE7=A whiter shade of pale
TTITLE8=Faster than the speed of night
TTITLE9=No ways to treat a lady
EXTD=
EXTT0=
EXTT1=
EXTT2=
EXTT3=
EXTT4=
EXTT5=
EXTT6=
EXTT7=
EXTT8=
EXTT9=
PLAYORDER=
